<svg width="96" height="95" viewBox="0 0 96 95" fill="none" xmlns="http://www.w3.org/2000/svg">
<path d="M67.2 46.3456C67.2 50.151 64.0712 53.2513 60.1974 53.2513C58.2754 53.2513 56.5024 52.4725 55.2509 51.2236C53.761 52.7223 52.0923 54.0447 50.2746 55.132C52.1221 55.896 53.8951 56.7923 55.5638 57.8355C48.442 63.8743 43.9425 72.8223 43.9425 82.7988C43.9425 84.5326 44.0766 86.2369 44.3448 87.8972H9.60001C9.6745 72.646 14.7849 59.9659 28.4623 54.9703C26.8085 53.8831 26.2572 55.5728 24.8716 54.1622C23.5903 55.6315 25.408 53.2807 23.2774 53.2807C19.4185 53.2807 16.2748 50.1951 16.2748 46.375C16.2748 42.9074 18.8822 40.0276 22.2643 39.5427C22.16 39.1019 20.8786 38.6612 20.7892 38.2057C18.6885 37.0155 18.4203 34.7675 18.4203 32.1963C18.4203 29.5368 19.9549 27.2007 22.2196 26.0693C25.0802 14.8586 37.4316 8.87854 49.2168 8.87854C54.1037 14.5206 59.3631 15.0055 62.1194 26.3778C64.3841 27.5092 65.9336 29.8454 65.9336 32.5342C65.9336 35.2083 64.4139 37.5004 62.179 38.6612C62.0896 38.9844 62.0151 39.3223 61.9257 39.6603C64.9502 40.4096 67.2 43.0984 67.2 46.3456Z" fill="#CCCCCC"/>
<path d="M53.2034 58.3431C54.1651 59.0049 55.4967 58.7696 56.1476 57.799C56.8134 56.8431 56.5767 55.5195 55.6002 54.8724L55.541 54.8283C55.3043 54.6518 55.0676 54.5048 54.6977 54.3136C54.9344 54.1224 55.1712 53.9165 55.4079 53.7106C56.7986 54.5636 58.3965 55.0048 60.0536 55.0048C64.9508 55.0048 68.9455 51.0341 68.9455 46.1663C68.9455 43.2104 67.4807 40.5338 65.1579 38.9162C66.7706 37.2838 67.7175 35.0778 67.7175 32.7101C67.7175 29.71 66.2084 26.9747 63.7376 25.3423C62.2285 19.8422 59.0327 14.8714 54.6681 11.2978C52.3601 9.40072 49.7857 7.93009 47.019 6.91536C44.1488 5.85651 41.1453 5.32709 38.068 5.32709C26.217 5.32709 15.8456 13.3714 12.5019 25.004C10.0459 26.6364 8.53681 29.3718 8.53681 32.3572C8.53681 34.6513 9.45411 36.8426 11.0076 38.475C10.1347 38.975 9.35054 39.6074 8.66997 40.3721C7.26443 41.9751 6.48028 44.0339 6.48028 46.181C6.48028 51.0488 10.475 55.0195 15.3722 55.0195C17.192 55.0195 18.9526 54.4607 20.4321 53.4459C20.5357 53.5342 20.6393 53.6371 20.7576 53.7401C15.2242 56.4313 10.475 60.4461 6.85016 65.5051C2.41161 71.7111 0.0591816 79.0348 0.0147961 86.6526L0 88.7851H42.9799C44.1488 88.7851 45.1105 87.8439 45.1105 86.6674C45.1105 85.5056 44.1636 84.5497 42.9799 84.5497H4.36457C5.25228 71.9023 13.6116 60.6814 25.6696 56.2254L29.5903 54.7842L26.1135 52.49C24.6635 51.5194 23.3024 50.387 22.0892 49.1076L20.4617 47.387L18.923 49.1664C18.0353 50.1959 16.7481 50.7694 15.4018 50.7694C12.8422 50.7694 10.7561 48.6958 10.7561 46.1516C10.7561 43.8722 12.4723 41.9162 14.7212 41.578L17.0736 41.2397L16.467 38.9603C16.3635 38.5632 16.2747 38.1514 16.1711 37.7544L15.9788 36.8279L15.1502 36.3573C13.7003 35.5484 12.7978 34.0043 12.7978 32.3425C12.7978 30.6071 13.7595 29.0336 15.313 28.2394L16.1711 27.7982L16.4078 26.8865C18.9822 16.6656 27.9037 9.53307 38.0828 9.53307C48.4098 9.53307 57.3609 16.798 59.8316 27.1953L60.0684 28.1512L60.9413 28.5924C62.4948 29.3865 63.4713 30.9601 63.4713 32.7101C63.4713 34.4308 62.5096 36.0043 60.9709 36.7985L60.098 37.2396L59.876 38.1956C59.8021 38.5191 59.7281 38.7985 59.6541 39.0926L59.0919 41.1662L61.178 41.6956C63.2345 42.2104 64.6845 44.0486 64.6845 46.181C64.6845 48.7252 62.5983 50.7988 60.0388 50.7988C58.796 50.7988 57.642 50.3135 56.7542 49.4458L55.2451 47.9458L53.7508 49.4605C52.4341 50.7988 50.9545 51.9606 49.3567 52.9312L45.8206 55.093L49.6674 56.6813C52.4932 57.8578 52.8187 58.0784 53.1294 58.2843L53.2034 58.3431Z" fill="#05161A"/>
<path d="M62.0812 61.5334C53.8176 61.5334 47.1273 68.4488 47.1273 77.0009C47.1273 85.5383 53.8176 92.4685 62.0812 92.4685C70.3449 92.4685 77.0352 85.553 77.0352 77.0009C77.0352 68.4636 70.3449 61.5334 62.0812 61.5334ZM53.0805 94.8572C52.2017 94.4738 51.8048 93.4121 52.1734 92.498L76.9785 32.1613C77.3471 31.2471 78.3676 30.8343 79.2464 31.2176C80.1252 31.601 80.5221 32.6626 80.1536 33.5768L55.3342 93.9135C54.9657 94.8277 53.9593 95.2405 53.0805 94.8572Z" fill="#05161A"/>
<path d="M81.0954 31.0748C81.0954 31.0748 92.0484 30.9588 94.629 23.491C97.2095 16.0232 95.5179 8.8019 94.629 2.61016C94.629 2.61016 94.2706 -0.0144407 94.2706 5.98647e-05C94.3279 0.188567 90.2707 3.6977 85.7261 6.29331C83.805 7.39535 81.8696 8.8019 80.2926 10.5855C79.4181 11.586 74.9165 16.9222 76.1351 23.636C76.7229 26.8696 78.4145 29.1607 79.4898 30.3787" fill="#CCCCCC"/>
</svg>
