<svg width="111" height="109" viewBox="0 0 111 109" fill="none" xmlns="http://www.w3.org/2000/svg">
<path d="M70.936 44.5048C70.936 48.0388 68.02 50.9128 64.4104 50.9128C62.6218 50.9128 60.9741 50.189 59.8034 49.0393C58.4159 50.4338 56.8658 51.6579 55.1748 52.6585C56.8984 53.361 58.546 54.2019 60.107 55.16C53.473 60.759 49.278 69.0511 49.278 78.3118C49.278 79.9191 49.408 81.5052 49.6465 83.038H17.3004C17.3655 68.902 22.1241 57.1398 34.861 52.4988C33.3217 51.4876 32.8014 53.063 31.5223 51.7431C30.3299 53.1056 32.0209 50.9234 30.0372 50.9234C26.4384 50.9234 23.5116 48.0601 23.5116 44.5154C23.5116 41.3008 25.9398 38.629 29.0942 38.1819C28.9966 37.7774 27.8042 37.3623 27.7175 36.9365C25.7555 35.8295 25.5062 33.7538 25.5062 31.3694C25.5062 28.8999 26.937 26.7391 29.04 25.6852C31.7066 15.3068 43.2185 9.77167 54.1884 9.77167C58.7411 15.0088 63.6407 15.4558 66.199 25.9939C68.3019 27.0477 69.7544 29.2086 69.7544 31.6994C69.7544 34.1796 68.3344 36.3085 66.2532 37.3836C66.1664 37.6816 66.1014 38.001 66.0147 38.3097C68.8439 39.0122 70.936 41.503 70.936 44.5048Z" fill="#CCCCCC"/>
<path d="M57.0067 55.7986C57.9064 56.416 59.153 56.1925 59.7709 55.2983C60.3996 54.4148 60.172 53.1907 59.2614 52.584L59.2072 52.5414C58.9796 52.3817 58.7628 52.2433 58.4159 52.0624C58.6435 51.8814 58.8603 51.7005 59.0771 51.5089C60.3779 52.2966 61.8738 52.7117 63.4347 52.7117C68.0308 52.7117 71.7706 49.0393 71.7706 44.5261C71.7706 41.7904 70.3939 39.3102 68.2151 37.8094C69.7327 36.2978 70.6216 34.2541 70.6216 32.0613C70.6216 29.2831 69.2124 26.7497 66.8926 25.2382C65.4835 20.1394 62.4808 15.541 58.3942 12.2199C56.2262 10.4636 53.8198 9.10106 51.2182 8.1537C48.53 7.1744 45.7116 6.68475 42.8282 6.68475C31.7174 6.68475 21.9832 14.1359 18.8505 24.9188C16.5416 26.4304 15.1324 28.9638 15.1324 31.7313C15.1324 33.8602 15.9887 35.8933 17.4521 37.3942C16.6283 37.8519 15.8912 38.4374 15.2625 39.1506C13.94 40.6408 13.2137 42.5462 13.2137 44.5261C13.2137 49.0393 16.9535 52.7117 21.5496 52.7117C23.2623 52.7117 24.9099 52.1901 26.2974 51.2534C26.395 51.3386 26.4926 51.4344 26.601 51.5195C21.4087 54.0103 16.9535 57.7359 13.5606 62.4195C9.39812 68.1676 7.18679 74.9481 7.15427 82.0161L7.14343 83.9853H47.446C48.5408 83.9853 49.4405 83.1125 49.4405 82.0267C49.4405 80.9516 48.5516 80.0681 47.446 80.0681H11.2084C12.043 68.3485 19.8803 57.9595 31.1862 53.8294L34.8609 52.4882L31.5981 50.3593C30.2323 49.4651 28.964 48.4113 27.8259 47.2298L26.3083 45.6437L24.8666 47.2936C24.0319 48.241 22.8287 48.7839 21.5604 48.7839C19.154 48.7839 17.2028 46.8679 17.2028 44.5048C17.2028 42.3972 18.8071 40.5769 20.9209 40.2682L23.1214 39.9489L22.5577 37.8307C22.4601 37.4581 22.3734 37.0855 22.2867 36.713L22.1024 35.8508L21.3219 35.4143C19.9561 34.6586 19.1106 33.2322 19.1106 31.6994C19.1106 30.0921 20.0103 28.6338 21.4737 27.8993L22.2759 27.4948L22.4927 26.6432C24.9099 17.1803 33.2675 10.57 42.8174 10.57C52.5082 10.57 60.8982 17.2974 63.2179 26.9307L63.4347 27.8141L64.2477 28.2293C65.7111 28.9638 66.6216 30.4221 66.6216 32.04C66.6216 33.6367 65.7219 35.095 64.2802 35.8295L63.4673 36.2446L63.2613 37.1281C63.1963 37.4262 63.1204 37.6923 63.0553 37.9584L62.535 39.8744L64.497 40.3641C66.4265 40.8431 67.7815 42.5462 67.7815 44.5154C67.7815 46.8785 65.8303 48.7945 63.4239 48.7945C62.264 48.7945 61.1692 48.3474 60.3454 47.5385L58.9254 46.144L57.5162 47.5598C56.2804 48.8052 54.8929 49.8803 53.397 50.7744L50.0801 52.7862L53.6897 54.2552C56.3346 55.3409 56.649 55.5432 56.9417 55.7454L57.0067 55.7986Z" fill="#05161A"/>
<path d="M46.7414 53.7336C46.568 53.3504 46.1127 53.1801 45.7225 53.3504L42.709 54.5106C42.4814 54.6064 42.3296 54.798 42.2754 55.0216C42.2212 54.798 42.0694 54.6064 41.8418 54.5106L38.8283 53.3504C38.4381 53.1801 37.9828 53.3504 37.8094 53.7336L31.5873 67.5395C31.4139 67.9227 31.5873 68.3698 31.9775 68.5401L34.991 69.7004C35.3813 69.8707 35.8365 69.7004 36.01 69.3172L42.232 55.5112C42.2537 55.4686 42.2646 55.4261 42.2754 55.3835C42.2862 55.4261 42.2971 55.4686 42.3188 55.5112L48.5408 69.3172C48.7143 69.7004 49.1695 69.8707 49.5598 69.7004L52.5732 68.5401C52.9635 68.3698 53.1369 67.9227 52.9635 67.5395L46.7414 53.7336ZM79.9872 54.3616C66.5133 54.3616 55.5976 65.0807 55.5976 78.3118C55.5976 91.543 66.5133 102.262 79.9872 102.262C93.4611 102.262 104.377 91.543 104.377 78.3118C104.377 65.0807 93.4503 54.3616 79.9872 54.3616ZM95.1738 69.0404L81.9167 93.7677C81.559 94.4383 80.8652 94.8428 80.1064 94.8428H80.0414C79.2609 94.8641 78.5455 94.4489 78.177 93.7677L64.9198 69.0404C64.3887 68.0611 64.7789 66.837 65.7762 66.3048C66.2531 66.0493 66.8168 66.0067 67.348 66.1664C67.8791 66.3261 68.3127 66.6773 68.562 67.1457L80.0414 88.5731L91.5208 67.1563C91.781 66.6773 92.2146 66.3261 92.7349 66.1664C93.266 66.0067 93.8188 66.06 94.3066 66.3154C95.3039 66.837 95.6941 68.0611 95.1738 69.0404Z" fill="#05161A"/>
</svg>
