<svg width="113" height="109" viewBox="0 0 113 109" fill="none" xmlns="http://www.w3.org/2000/svg">
<path d="M42.1543 26.3239C50.3313 26.3239 57.5594 27.2393 61.6534 28.4528V29.975C61.6534 33.0193 53.4763 35.4569 43.1033 35.4569C33.0392 35.4569 33.3813 33.0193 33.3813 29.975V28.1441C37.4533 26.9307 35.2352 26.3239 42.1543 26.3239Z" fill="#CCCCCC"/>
<path d="M61.0134 33.328V35.244C61.0134 48.0281 51.2693 55.6389 51.2693 55.6389V59.8116C51.2693 60.4183 52.8474 61.3338 54.7233 62.2492C55.1096 62.3131 55.4848 62.3769 55.8489 62.4514C52.7812 67.0073 50.9935 72.4467 50.9935 78.2799C50.9935 80.6749 51.2914 82.9954 51.8542 85.2201C48.0029 85.433 44.9241 85.4756 43.7103 85.4756H43.5227C43.1585 85.4756 42.8054 85.4649 42.4412 85.4543C42.4412 85.4649 42.4523 85.4649 42.4523 85.4756C37.7402 85.4756 17.9542 84.8688 17.0052 77.8647V77.7796C17.0052 75.9487 20.4592 65.6022 40.2783 62.2598C41.8453 61.6531 42.6288 60.7377 42.6288 59.8222V55.6496C42.6288 55.6496 33.9883 48.0387 33.9883 35.2547V33.3386C36.5043 35.4676 34.5952 37.2984 43.0813 37.2984C51.5673 37.2984 58.8174 35.7656 61.0134 33.328ZM66.6744 17.4996C66.3654 18.415 66.0454 19.9372 65.4164 21.1507C64.1584 23.5883 61.9514 26.9306 61.9514 26.9306V28.1441C57.5484 26.9306 50.6293 26.0152 42.4523 26.0152C35.2242 26.0152 37.7623 26.6219 33.3593 27.5374V27.2287C33.3593 27.2287 31.1523 23.8757 29.9053 21.4487C29.2763 19.9265 28.6473 18.7131 28.3383 17.4889C28.3383 16.5735 28.9673 15.9668 29.9053 15.36C33.0503 14.1466 39.1748 11.1022 42.0109 9.8781C42.6399 9.56941 43.8979 9.27136 44.8358 9.27136H49.0623C50.0003 9.27136 51.2693 9.58005 51.8873 9.8781C54.7234 11.0916 61.9514 14.1359 65.0964 15.36C66.0454 15.9774 66.6744 16.5842 66.6744 17.4996Z" fill="#CCCCCC"/>
<path d="M54.7344 59.9074C54.4144 59.7477 54.1274 59.62 53.8957 59.5242V56.895C54.8889 56.0009 56.7317 54.1913 58.5636 51.5514C62.0617 46.5272 63.9156 40.8217 63.9156 35.0737C63.9156 34.7224 63.8935 34.2221 63.8715 33.6899C63.8494 33.2216 63.8273 32.7319 63.8273 32.4551C63.8273 32.3168 63.8053 32.1784 63.7832 32.04C64.2025 31.4546 64.4232 30.8798 64.5115 30.3475L64.8867 30.454V27.1861C65.5599 26.1323 67.182 23.5776 68.2304 21.5551C68.7711 20.512 69.0911 19.373 69.356 18.4576C69.4553 18.117 69.5436 17.787 69.6318 17.5528L69.7312 17.2548V16.9461C69.7312 14.7639 67.9103 13.593 67.2262 13.146L67.0496 13.0289L66.851 12.9544C63.706 11.7409 56.4448 8.68591 53.3881 7.36599C52.3949 6.89763 50.8169 6.55701 49.6251 6.55701H37.354C36.1622 6.55701 34.5952 6.89763 33.591 7.36599C30.5343 8.67527 23.2731 11.7302 20.1281 12.9544L19.9295 13.0289L19.7529 13.146C19.0687 13.593 17.2479 14.7639 17.2479 16.9461V17.1802L17.3031 17.4144C17.568 18.4363 17.9983 19.4156 18.4508 20.4481C18.6273 20.8633 18.8149 21.289 19.0025 21.7361L19.0356 21.8106L19.0687 21.8851C20.1171 23.9076 21.7282 26.4623 22.4124 27.5161V29.7727C22.4124 30.305 22.5338 30.9756 22.9642 31.6994C22.9642 32.0826 22.9862 32.7106 23.0083 33.3812C23.0304 34.0518 23.0524 34.8076 23.0524 35.0843C23.0524 40.843 24.9063 46.5379 28.4045 51.5621C30.2363 54.1913 32.0792 56.0115 33.0724 56.9056V59.9819C32.8186 60.1735 32.2227 60.5461 30.9646 61.0464C26.1754 61.8766 21.9269 63.154 18.3184 64.8571C15.2396 66.3154 12.6132 68.0824 10.5165 70.1155C6.6542 73.8517 5.62793 77.4709 5.62793 78.8547V78.9824L5.65 79.1101C6.20176 83.2402 11.8849 85.8694 23.527 87.3916C32.8296 88.6051 42.4522 88.6157 42.8495 88.6157H42.8937C43.7765 88.5944 45.8621 88.5412 47.6388 88.488C48.643 88.456 48.4995 88.4241 49.0954 88.4028C49.4265 88.3922 49.7023 88.3815 49.901 88.3709C50.3534 88.3496 51.0486 88.307 51.6114 87.6683C51.9866 87.2425 52.1521 86.689 52.0639 86.1355C51.9094 85.0711 50.8831 84.3366 49.7906 84.4963H50.7507C50.2651 84.5282 48.963 84.6027 47.0318 84.6559L48.5547 73.724C48.5547 71.9783 46.1711 70.5413 44.4827 70.5413H43.644C41.9557 70.5413 39.4728 71.9783 39.4728 73.724L40.819 84.7304C38.1044 84.6985 31.4723 84.5176 24.0566 83.5489C19.6205 82.9741 16.0893 82.2183 13.5732 81.3029C10.4613 80.1852 9.79922 79.174 9.6668 78.7376C9.77715 78.0031 10.6158 75.491 13.485 72.7447C16.2769 70.0729 21.7393 66.5283 31.8916 64.8145L32.1013 64.7826L32.2999 64.7081C34.54 63.8352 37.1112 62.5685 37.1112 60.4077V55.1067L36.3608 54.5213C36.2726 54.4468 27.0913 47.1446 27.0913 35.0737V34.7544C27.8196 35.0631 28.6252 35.3398 29.508 35.6059C33.3041 36.7236 38.281 37.3303 43.5006 37.3303C48.8416 37.3303 53.8516 36.713 57.6145 35.6059C58.4753 35.3505 59.2257 35.0843 59.8988 34.7969V35.0737C59.8988 40.0873 58.3539 44.8667 55.3082 49.2842C53.0019 52.6372 50.6514 54.5 50.6293 54.5213L49.8789 55.1067V60.4077C49.8789 61.9831 50.8059 62.4834 51.6776 62.8346C51.9535 62.9411 52.3287 63.0901 52.9246 63.3882C53.2115 63.5265 53.5205 63.5904 53.8295 63.5904C54.5688 63.5904 55.2751 63.1966 55.6282 62.526C56.1248 61.5573 55.7275 60.3864 54.7344 59.9074ZM42.8385 23.7479C41.6246 23.7479 40.4218 23.7692 39.241 23.8011L43.4895 21.7468L47.8705 23.865C46.2263 23.7905 44.5379 23.7479 42.8385 23.7479ZM51.6335 10.8468L51.7218 10.8893C54.7123 12.1773 61.852 15.1791 65.1516 16.4671C65.4274 16.6587 65.5709 16.7864 65.6481 16.8609C65.593 17.0419 65.5378 17.2228 65.4826 17.4144C65.2509 18.2128 64.9971 19.1176 64.6329 19.8201C63.5294 21.9596 61.6534 24.8762 61.2561 25.4723C57.5152 24.6421 52.9025 24.0885 47.9588 23.865L47.2194 18.8727L50.0996 15.3813L45.8069 14.6894L43.5889 10.4316H49.6251C50.3093 10.4316 51.2914 10.6871 51.6335 10.8468ZM22.1586 18.9153C21.8275 18.1595 21.5296 17.4889 21.331 16.8609C21.3972 16.7864 21.5517 16.648 21.8386 16.4564C25.1381 15.1684 32.2778 12.1667 35.2684 10.8787L35.3566 10.8361C35.6987 10.6658 36.6809 10.421 37.365 10.421H43.4013L41.1942 14.6894L36.9016 15.3813L39.7817 18.8727L39.0534 23.8011C34.0655 23.9502 29.4308 24.376 25.6016 25.0466C24.8732 23.9076 23.5821 21.8319 22.7324 20.1927C22.5228 19.7456 22.3352 19.3304 22.1586 18.9153ZM55.9372 32.0294C52.6046 32.9448 48.1795 33.4451 43.4895 33.4451C38.9541 33.4451 34.5952 32.9448 31.2295 32.04C27.6651 31.082 26.5616 30.0388 26.4402 29.7195V29.3469C30.3246 28.4422 36.0629 27.9312 42.5185 27.9312C49.3823 27.9312 56.0917 28.5805 60.5389 29.6556V29.7301C60.4506 29.9963 59.4685 31.0607 55.9372 32.0294ZM81.2077 54.0955C67.491 54.0955 56.3786 64.8145 56.3786 78.0457C56.3786 91.2768 67.491 101.996 81.2077 101.996C94.9244 101.996 106.037 91.2768 106.037 78.0457C106.037 64.8145 94.9134 54.0955 81.2077 54.0955ZM96.668 68.7743L83.172 93.5015C82.8078 94.1721 82.1016 94.5766 81.3291 94.5766H81.2629C80.4684 94.5979 79.74 94.1828 79.3648 93.5015L65.8688 68.7743C65.3281 67.795 65.7254 66.5709 66.7406 66.0386C67.2262 65.7832 67.8 65.7406 68.3407 65.9003C68.8814 66.0599 69.3228 66.4112 69.5767 66.8796L81.2629 88.307L92.9491 66.8902C93.214 66.4112 93.6554 66.0599 94.1851 65.9003C94.7258 65.7406 95.2886 65.7938 95.7852 66.0493C96.8004 66.5709 97.1977 67.795 96.668 68.7743Z" fill="#05161A"/>
<path d="M43.9751 61.9512C46.1159 61.9512 47.8484 63.6224 47.8484 65.6874C47.8484 67.7524 46.1159 69.4236 43.9751 69.4236C41.8343 69.4236 41.2053 67.7524 41.2053 65.6874C41.2053 63.6224 41.8343 61.9512 43.9751 61.9512Z" fill="#05161A"/>
</svg>
