<svg width="65" height="35" viewBox="0 0 65 35" fill="none" xmlns="http://www.w3.org/2000/svg">
<path d="M36.2639 32.9443H41.7273V27.5944L48.4679 24.849V33.437H46.2683L46.765 18.0913L54.5699 14.9236V33.437H52.4413L52.867 18.0913L61.3105 19.4991V33.437H65" stroke="white" stroke-width="2" stroke-miterlimit="10"/>
<path d="M18.8803 33.5074H15.5455V27.524L7.88251 24.4971V34.0002H10.3659L9.86921 16.965L1.00003 13.4453V34.0002H3.41245L2.91577 16.965L3.41245 34.0002" stroke="white" stroke-width="2" stroke-miterlimit="10"/>
<path d="M32.9291 0V15.9089V33.4368H29.5234L31.2972 25.6232H34.703" stroke="white" stroke-width="2" stroke-miterlimit="10"/>
<path d="M31.2972 25.6232L32.9291 15.9089" stroke="white" stroke-width="2" stroke-miterlimit="10"/>
<path d="M36.5478 33.437L34.703 25.6233L32.9292 16.6833" stroke="white" stroke-width="2" stroke-miterlimit="10"/>
<path d="M31.5101 13.7971V14.9234L32.9291 15.4866L34.4192 14.853V13.9379V13.7971H31.5101Z" stroke="white" stroke-width="2" stroke-miterlimit="10"/>
<path d="M16.7517 33.437H18.6675V4.50537L22.428 5.77245L23.918 9.71447V14.3604L25.9757 19.0768L25.1242 21.3294L27.1109 24.7082V33.437H29.5234" stroke="white" stroke-width="2" stroke-miterlimit="10"/>
<path d="M20.7251 5.20923L21.0799 33.4369H27.1109" stroke="white" stroke-width="2" stroke-miterlimit="10"/>
</svg>
