<svg width="45" height="45" viewBox="0 0 45 45" fill="none" xmlns="http://www.w3.org/2000/svg">
<path d="M9.78261 20.8402V20.8233V3.93342L9.66522 3.8178H9.65543L6.98478 1.19357C5.35109 -0.417343 3.02283 -0.339395 1.575 1.55732C0.606522 2.83047 0 4.59727 0 6.55895V11.2384L9.78261 20.8402ZM35.2174 20.8233V20.8402L45 11.2384V6.55895C45 4.62325 44.413 2.85645 43.4543 1.58331C42.0261 -0.309516 39.7712 -0.531666 38.1483 1.05976L35.3348 3.8178L35.2174 3.93342V20.8233ZM11.7391 22.7434L21.9189 32.7363C22.2642 33.0753 22.7367 33.0753 23.0821 32.7363L33.2609 22.7434V5.85352L22.5 16.4193L11.7391 5.85352V22.7434ZM35.2174 24.0698V43.7009C35.2174 44.418 35.6557 45 36.1957 45H42.5543C43.9053 45 45 43.5463 45 41.7522V14.4667L35.2174 24.0698ZM9.78261 24.0698L0 14.4667V41.7522C0 43.5463 1.09467 45 2.44565 45H8.80435C9.34435 45 9.78261 44.418 9.78261 43.7009V24.0698Z" fill="black"/>
</svg>
