<svg width="46" height="35" viewBox="0 0 46 35" fill="none" xmlns="http://www.w3.org/2000/svg">
<path d="M10 16.0417V16.0287V3.02775L9.88 2.93875H9.87L7.14 0.91875C5.47 -0.32125 3.09 -0.261249 1.61 1.19875C0.62 2.17875 0 3.53875 0 5.04875V8.65075L10 16.0417ZM36 16.0287V16.0417L46 8.65075V5.04875C46 3.55875 45.4 2.19875 44.42 1.21875C42.96 -0.23825 40.655 -0.40925 38.996 0.81575L36.12 2.93875L36 3.02775V16.0287ZM12 17.5068L22.406 25.1988C22.759 25.4598 23.242 25.4598 23.595 25.1988L34 17.5068V4.50575L23 12.6388L12 4.50575V17.5068ZM36 18.5278V33.6388C36 34.1908 36.448 34.6388 37 34.6388H43.5C44.881 34.6388 46 33.5198 46 32.1388V11.1357L36 18.5278ZM10 18.5278L0 11.1357V32.1388C0 33.5198 1.119 34.6388 2.5 34.6388H9C9.552 34.6388 10 34.1908 10 33.6388V18.5278Z" fill="#E9D3B0"/>
</svg>
