<svg width="242" height="171" viewBox="0 0 242 171" fill="none" xmlns="http://www.w3.org/2000/svg">
<path d="M17.0028 140.909C16.8537 139.65 16.2488 138.672 15.1882 137.976C14.1276 137.28 12.8267 136.932 11.2855 136.932C10.1586 136.932 9.17259 137.114 8.32741 137.479C7.49053 137.843 6.83594 138.345 6.36364 138.983C5.89962 139.621 5.66761 140.346 5.66761 141.158C5.66761 141.837 5.82919 142.421 6.15234 142.91C6.48378 143.391 6.90637 143.793 7.4201 144.116C7.93383 144.431 8.47242 144.692 9.03587 144.899C9.59931 145.098 10.1172 145.259 10.5895 145.384L13.1747 146.08C13.8376 146.254 14.575 146.494 15.3871 146.8C16.2074 147.107 16.9904 147.525 17.7362 148.056C18.4902 148.578 19.1116 149.249 19.6005 150.069C20.0894 150.89 20.3338 151.896 20.3338 153.089C20.3338 154.465 19.9734 155.708 19.2525 156.818C18.5399 157.929 17.4959 158.811 16.1204 159.466C14.7532 160.12 13.0919 160.447 11.1364 160.447C9.31345 160.447 7.73497 160.153 6.40092 159.565C5.07517 158.977 4.03113 158.156 3.26882 157.104C2.5148 156.052 2.08807 154.83 1.98864 153.438H5.17045C5.25331 154.399 5.57647 155.194 6.13991 155.824C6.71165 156.445 7.43253 156.909 8.30256 157.216C9.18087 157.514 10.1255 157.663 11.1364 157.663C12.313 157.663 13.3694 157.473 14.3058 157.092C15.2421 156.702 15.9837 156.164 16.5305 155.476C17.0774 154.78 17.3509 153.968 17.3509 153.04C17.3509 152.195 17.1147 151.507 16.6424 150.977C16.1701 150.446 15.5487 150.015 14.7781 149.684C14.0075 149.353 13.1747 149.062 12.2798 148.814L9.14773 147.919C7.15909 147.347 5.58475 146.531 4.42472 145.471C3.26468 144.41 2.68466 143.022 2.68466 141.307C2.68466 139.882 3.06996 138.639 3.84055 137.578C4.61944 136.509 5.66347 135.681 6.97266 135.092C8.29013 134.496 9.76089 134.197 11.3849 134.197C13.0256 134.197 14.4839 134.492 15.7599 135.08C17.036 135.66 18.0469 136.455 18.7926 137.466C19.5466 138.477 19.9444 139.625 19.9858 140.909H17.0028ZM25.4017 160V134.545H40.7639V137.28H28.4841V145.881H39.9685V148.615H28.4841V157.266H40.9628V160H25.4017ZM46.3197 160V134.545H54.9205C56.9092 134.545 58.5415 134.885 59.8176 135.565C61.0936 136.236 62.0382 137.16 62.6514 138.336C63.2645 139.513 63.5711 140.851 63.5711 142.351C63.5711 143.851 63.2645 145.181 62.6514 146.341C62.0382 147.501 61.0977 148.412 59.83 149.075C58.5622 149.73 56.9423 150.057 54.9703 150.057H48.01V147.273H54.8708C56.2297 147.273 57.3235 147.074 58.1521 146.676C58.989 146.278 59.5938 145.715 59.9667 144.986C60.3479 144.248 60.5384 143.37 60.5384 142.351C60.5384 141.332 60.3479 140.441 59.9667 139.679C59.5856 138.916 58.9765 138.328 58.1396 137.914C57.3028 137.491 56.1966 137.28 54.8211 137.28H49.4021V160H46.3197ZM58.3012 148.565L64.5654 160H60.9859L54.8211 148.565H58.3012ZM69.1704 134.545L76.7272 155.973H77.0255L84.5823 134.545H87.8138L78.4672 160H75.2854L65.9388 134.545H69.1704ZM94.8611 134.545V160H91.7787V134.545H94.8611ZM121.524 142.5H118.442C118.26 141.613 117.941 140.835 117.485 140.163C117.037 139.492 116.491 138.929 115.844 138.473C115.206 138.009 114.498 137.661 113.719 137.429C112.94 137.197 112.128 137.081 111.283 137.081C109.742 137.081 108.345 137.47 107.094 138.249C105.851 139.028 104.861 140.176 104.124 141.692C103.395 143.208 103.03 145.069 103.03 147.273C103.03 149.477 103.395 151.337 104.124 152.853C104.861 154.37 105.851 155.517 107.094 156.296C108.345 157.075 109.742 157.464 111.283 157.464C112.128 157.464 112.94 157.348 113.719 157.116C114.498 156.884 115.206 156.541 115.844 156.085C116.491 155.621 117.037 155.053 117.485 154.382C117.941 153.703 118.26 152.924 118.442 152.045H121.524C121.292 153.346 120.87 154.511 120.257 155.538C119.643 156.565 118.881 157.44 117.97 158.161C117.058 158.873 116.035 159.416 114.9 159.789C113.773 160.162 112.567 160.348 111.283 160.348C109.112 160.348 107.181 159.818 105.491 158.757C103.801 157.696 102.471 156.188 101.501 154.233C100.532 152.277 100.047 149.957 100.047 147.273C100.047 144.588 100.532 142.268 101.501 140.312C102.471 138.357 103.801 136.849 105.491 135.788C107.181 134.728 109.112 134.197 111.283 134.197C112.567 134.197 113.773 134.384 114.9 134.757C116.035 135.13 117.058 135.676 117.97 136.397C118.881 137.11 119.643 137.98 120.257 139.007C120.87 140.027 121.292 141.191 121.524 142.5ZM126.505 160V134.545H141.867V137.28H129.588V145.881H141.072V148.615H129.588V157.266H142.066V160H126.505ZM177.75 142.5H174.668C174.485 141.613 174.166 140.835 173.71 140.163C173.263 139.492 172.716 138.929 172.07 138.473C171.432 138.009 170.723 137.661 169.945 137.429C169.166 137.197 168.354 137.081 167.508 137.081C165.967 137.081 164.571 137.47 163.32 138.249C162.077 139.028 161.087 140.176 160.349 141.692C159.62 143.208 159.256 145.069 159.256 147.273C159.256 149.477 159.62 151.337 160.349 152.853C161.087 154.37 162.077 155.517 163.32 156.296C164.571 157.075 165.967 157.464 167.508 157.464C168.354 157.464 169.166 157.348 169.945 157.116C170.723 156.884 171.432 156.541 172.07 156.085C172.716 155.621 173.263 155.053 173.71 154.382C174.166 153.703 174.485 152.924 174.668 152.045H177.75C177.518 153.346 177.095 154.511 176.482 155.538C175.869 156.565 175.107 157.44 174.195 158.161C173.284 158.873 172.26 159.416 171.125 159.789C169.998 160.162 168.793 160.348 167.508 160.348C165.338 160.348 163.407 159.818 161.717 158.757C160.026 157.696 158.696 156.188 157.727 154.233C156.757 152.277 156.273 149.957 156.273 147.273C156.273 144.588 156.757 142.268 157.727 140.312C158.696 138.357 160.026 136.849 161.717 135.788C163.407 134.728 165.338 134.197 167.508 134.197C168.793 134.197 169.998 134.384 171.125 134.757C172.26 135.13 173.284 135.676 174.195 136.397C175.107 137.11 175.869 137.98 176.482 139.007C177.095 140.027 177.518 141.191 177.75 142.5ZM185.813 134.545V160H182.731V134.545H185.813ZM190.601 137.28V134.545H209.692V137.28H201.688V160H198.606V137.28H190.601ZM212.262 134.545H215.792L222.852 146.428H223.15L230.21 134.545H233.739L224.542 149.51V160H221.46V149.51L212.262 134.545Z" fill="white"/>
<path d="M135.886 122.307H156.01V102.445L180.837 92.2531V124.137H172.735L174.565 67.1644L203.312 55.4041V124.137H195.472L197.04 67.1644L228.139 72.3912V124.137H241.729" stroke="white" stroke-width="2" stroke-miterlimit="10"/>
<path d="M71.8578 124.398H59.5748V102.184L31.35 90.9465V126.227H40.4969L38.6676 62.983L6 49.916V126.227H14.8856L13.0562 62.983L14.8856 126.227" stroke="white" stroke-width="2" stroke-miterlimit="10"/>
<path d="M123.603 0V59.063V124.137H111.059L117.592 95.128H130.137" stroke="white" stroke-width="2" stroke-miterlimit="10"/>
<path d="M117.592 95.128L123.603 59.063" stroke="white" stroke-width="2" stroke-miterlimit="10"/>
<path d="M136.932 124.137L130.137 95.1278L123.603 61.9375" stroke="white" stroke-width="2" stroke-miterlimit="10"/>
<path d="M118.376 51.2228V55.4042L123.603 57.495L129.091 55.1429V51.7455V51.2228H118.376Z" stroke="white" stroke-width="2" stroke-miterlimit="10"/>
<path d="M64.0176 124.137H71.0738V16.726L84.9249 21.4301L90.413 36.0652V53.3136L97.9919 70.8234L94.8558 79.1863L102.173 91.7307V124.137H111.059" stroke="white" stroke-width="2" stroke-miterlimit="10"/>
<path d="M78.6526 19.3394L79.9594 124.137H102.173" stroke="white" stroke-width="2" stroke-miterlimit="10"/>
</svg>
