<svg width="50" height="50" viewBox="0 0 50 50" fill="none" xmlns="http://www.w3.org/2000/svg">
<path d="M44.55 36.9834C45.0368 37.4718 45.4017 38.0681 45.6152 38.7238C45.8287 39.3796 45.8848 40.0764 45.7789 40.7578C45.673 41.4392 45.4081 42.0862 45.0056 42.6462C44.6032 43.2062 44.0746 43.6636 43.4625 43.9813C39.9647 45.8507 35.8895 46.3285 32.0542 45.3188C21.875 42.7563 7.24374 28.125 4.68124 17.9459C3.67149 14.1106 4.14927 10.0353 6.01874 6.53753C6.33644 5.92546 6.79382 5.3968 7.35384 4.99437C7.91386 4.59194 8.56078 4.32705 9.24222 4.22116C9.92366 4.11526 10.6205 4.17133 11.2762 4.38482C11.9319 4.59832 12.5282 4.96324 13.0167 5.45003L17.3604 9.7917C17.9868 10.4118 18.4107 11.2071 18.5762 12.0729C18.7417 12.9387 18.641 13.8343 18.2875 14.6417C17.9006 15.5476 17.3513 16.3751 16.6667 17.0834C11.7 22.05 27.9521 38.3021 32.9167 33.3334C33.625 32.6463 34.4533 32.0948 35.3604 31.7063C36.1677 31.3522 37.0635 31.2512 37.9294 31.4167C38.7953 31.5822 39.5906 32.0065 40.2104 32.6334L44.55 36.9834Z" fill="#E9D3B0"/>
</svg>
