<svg width="114" height="69" viewBox="0 0 114 69" fill="none" xmlns="http://www.w3.org/2000/svg">
<path d="M8.23669 55.6563C8.16545 55.0547 7.87652 54.5877 7.36991 54.2552C6.8633 53.9228 6.24192 53.7566 5.50575 53.7566C4.96748 53.7566 4.49649 53.8436 4.09279 54.0178C3.69304 54.1919 3.38037 54.4314 3.15477 54.7361C2.93313 55.0409 2.8223 55.3872 2.8223 55.7751C2.8223 56.0996 2.89948 56.3786 3.05384 56.6122C3.21216 56.8417 3.41401 57.0337 3.6594 57.188C3.90479 57.3384 4.16205 57.4631 4.43118 57.5621C4.70032 57.657 4.94769 57.7342 5.17329 57.7936L6.40815 58.1261C6.72478 58.2092 7.07703 58.3239 7.4649 58.4704C7.85673 58.6168 8.23075 58.8167 8.58696 59.07C8.94713 59.3194 9.24397 59.6399 9.47749 60.0318C9.711 60.4236 9.82776 60.9045 9.82776 61.4744C9.82776 62.1314 9.65559 62.7251 9.31126 63.2555C8.97088 63.7858 8.47218 64.2073 7.81517 64.52C7.16212 64.8327 6.36857 64.989 5.43451 64.989C4.56377 64.989 3.8098 64.8485 3.17258 64.5675C2.53932 64.2865 2.04062 63.8947 1.6765 63.392C1.31633 62.8894 1.1125 62.3056 1.065 61.6407H2.58483C2.62441 62.0998 2.77877 62.4797 3.0479 62.7805C3.321 63.0774 3.66533 63.299 4.08091 63.4455C4.50045 63.5879 4.95165 63.6592 5.43451 63.6592C5.99653 63.6592 6.50116 63.5681 6.9484 63.3861C7.39564 63.2001 7.74987 62.9428 8.01109 62.6143C8.27231 62.2818 8.40292 61.894 8.40292 61.4507C8.40292 61.047 8.29012 60.7185 8.06452 60.4652C7.83892 60.2119 7.54208 60.006 7.174 59.8477C6.80591 59.6894 6.40815 59.5509 5.9807 59.4322L4.48462 59.0047C3.53472 58.7316 2.78273 58.3418 2.22862 57.8352C1.67452 57.3285 1.39747 56.6656 1.39747 55.8463C1.39747 55.1656 1.58151 54.5719 1.94959 54.0653C2.32163 53.5547 2.82033 53.1589 3.44567 52.8779C4.07497 52.5929 4.7775 52.4504 5.55324 52.4504C6.33691 52.4504 7.03349 52.591 7.64301 52.872C8.25252 53.149 8.73538 53.529 9.09159 54.0118C9.45176 54.4947 9.64174 55.0429 9.66153 55.6563H8.23669ZM12.2485 64.7753V52.6167H19.5864V53.9228H13.7208V58.0311H19.2065V59.3372H13.7208V63.4692H19.6814V64.7753H12.2485ZM22.2402 64.7753V52.6167H26.3485C27.2983 52.6167 28.0781 52.779 28.6876 53.1035C29.2971 53.4241 29.7483 53.8654 30.0412 54.4274C30.334 54.9894 30.4805 55.6286 30.4805 56.345C30.4805 57.0614 30.334 57.6966 30.0412 58.2507C29.7483 58.8048 29.2991 59.2402 28.6935 59.5568C28.0879 59.8695 27.3142 60.0258 26.3722 60.0258H23.0476V58.696H26.3247C26.9738 58.696 27.4962 58.601 27.892 58.411C28.2918 58.221 28.5807 57.9519 28.7588 57.6036C28.9409 57.2514 29.0319 56.8318 29.0319 56.345C29.0319 55.8582 28.9409 55.4327 28.7588 55.0686C28.5767 54.7045 28.2858 54.4235 27.8861 54.2256C27.4863 54.0237 26.958 53.9228 26.301 53.9228H23.7125V64.7753H22.2402ZM27.9633 59.3134L30.9554 64.7753H29.2456L26.301 59.3134H27.9633ZM33.155 52.6167L36.7646 62.8518H36.9071L40.5167 52.6167H42.0603L37.5958 64.7753H36.0759L31.6115 52.6167H33.155ZM45.4264 52.6167V64.7753H43.9541V52.6167H45.4264ZM58.1624 56.4162H56.6901C56.603 55.9928 56.4506 55.6207 56.233 55.3001C56.0192 54.9795 55.758 54.7104 55.4493 54.4927C55.1445 54.2711 54.8061 54.1048 54.4341 53.994C54.0621 53.8832 53.6742 53.8278 53.2705 53.8278C52.5343 53.8278 51.8674 54.0138 51.2698 54.3859C50.6761 54.7579 50.2031 55.3061 49.8509 56.0304C49.5026 56.7546 49.3284 57.6432 49.3284 58.696C49.3284 59.7488 49.5026 60.6373 49.8509 61.3616C50.2031 62.0859 50.6761 62.6341 51.2698 63.0061C51.8674 63.3782 52.5343 63.5642 53.2705 63.5642C53.6742 63.5642 54.0621 63.5088 54.4341 63.398C54.8061 63.2871 55.1445 63.1229 55.4493 62.9052C55.758 62.6836 56.0192 62.4124 56.233 62.0919C56.4506 61.7673 56.603 61.3953 56.6901 60.9757H58.1624C58.0516 61.5971 57.8497 62.1532 57.5569 62.644C57.264 63.1348 56.8999 63.5523 56.4645 63.8966C56.0291 64.237 55.5403 64.4963 54.9981 64.6744C54.4598 64.8525 53.8839 64.9415 53.2705 64.9415C52.2335 64.9415 51.3113 64.6882 50.5039 64.1816C49.6965 63.675 49.0613 62.9547 48.5982 62.0206C48.1351 61.0866 47.9036 59.9783 47.9036 58.696C47.9036 57.4136 48.1351 56.3054 48.5982 55.3714C49.0613 54.4373 49.6965 53.717 50.5039 53.2104C51.3113 52.7038 52.2335 52.4504 53.2705 52.4504C53.8839 52.4504 54.4598 52.5395 54.9981 52.7176C55.5403 52.8957 56.0291 53.1569 56.4645 53.5013C56.8999 53.8416 57.264 54.2572 57.5569 54.748C57.8497 55.2348 58.0516 55.7909 58.1624 56.4162ZM60.5416 64.7753V52.6167H67.8795V53.9228H62.0139V58.0311H67.4996V59.3372H62.0139V63.4692H67.9745V64.7753H60.5416ZM85.0191 56.4162H83.5468C83.4597 55.9928 83.3073 55.6207 83.0897 55.3001C82.8759 54.9795 82.6147 54.7104 82.306 54.4927C82.0012 54.2711 81.6628 54.1048 81.2908 53.994C80.9188 53.8832 80.5309 53.8278 80.1272 53.8278C79.391 53.8278 78.7241 54.0138 78.1265 54.3859C77.5328 54.7579 77.0598 55.3061 76.7076 56.0304C76.3593 56.7546 76.1851 57.6432 76.1851 58.696C76.1851 59.7488 76.3593 60.6373 76.7076 61.3616C77.0598 62.0859 77.5328 62.6341 78.1265 63.0061C78.7241 63.3782 79.391 63.5642 80.1272 63.5642C80.5309 63.5642 80.9188 63.5088 81.2908 63.398C81.6628 63.2871 82.0012 63.1229 82.306 62.9052C82.6147 62.6836 82.8759 62.4124 83.0897 62.0919C83.3073 61.7673 83.4597 61.3953 83.5468 60.9757H85.0191C84.9083 61.5971 84.7065 62.1532 84.4136 62.644C84.1207 63.1348 83.7566 63.5523 83.3212 63.8966C82.8858 64.237 82.397 64.4963 81.8548 64.6744C81.3165 64.8525 80.7407 64.9415 80.1272 64.9415C79.0902 64.9415 78.168 64.6882 77.3606 64.1816C76.5532 63.675 75.918 62.9547 75.4549 62.0206C74.9918 61.0866 74.7603 59.9783 74.7603 58.696C74.7603 57.4136 74.9918 56.3054 75.4549 55.3714C75.918 54.4373 76.5532 53.717 77.3606 53.2104C78.168 52.7038 79.0902 52.4504 80.1272 52.4504C80.7407 52.4504 81.3165 52.5395 81.8548 52.7176C82.397 52.8957 82.8858 53.1569 83.3212 53.5013C83.7566 53.8416 84.1207 54.2572 84.4136 54.748C84.7065 55.2348 84.9083 55.7909 85.0191 56.4162ZM88.8706 52.6167V64.7753H87.3983V52.6167H88.8706ZM91.1578 53.9228V52.6167H100.277V53.9228H96.4535V64.7753H94.9811V53.9228H91.1578ZM101.504 52.6167H103.19L106.562 58.2923H106.705L110.077 52.6167H111.763L107.37 59.7646V64.7753H105.897V59.7646L101.504 52.6167Z" fill="white"/>
<path d="M61.6 47.3H69.3V39.7L78.8 35.8V48H75.7L76.4 26.2L87.4 21.7V48H84.4L85 26.2L96.9 28.2V48H102.1" stroke="white" stroke-width="2" stroke-miterlimit="10"/>
<path d="M37.1 48.1H32.4V39.6L21.6 35.3V48.8H25.1L24.4 24.6L11.9 19.6V48.8H15.3L14.6 24.6L15.3 48.8" stroke="white" stroke-width="2" stroke-miterlimit="10"/>
<path d="M56.9 0.5V23.1V48H52.1L54.6 36.9H59.4" stroke="white" stroke-width="2" stroke-miterlimit="10"/>
<path d="M54.6 36.9L56.9 23.1" stroke="white" stroke-width="2" stroke-miterlimit="10"/>
<path d="M62 48L59.4 36.9L56.9 24.2" stroke="white" stroke-width="2" stroke-miterlimit="10"/>
<path d="M54.9 20.1V21.7L56.9 22.5L59 21.6V20.3V20.1H54.9Z" stroke="white" stroke-width="2" stroke-miterlimit="10"/>
<path d="M34.1 48H36.8V6.89999L42.1 8.69999L44.2 14.3V20.9L47.1 27.6L45.9 30.8L48.7 35.6V48H52.1" stroke="white" stroke-width="2" stroke-miterlimit="10"/>
<path d="M39.7 7.89999L40.2 48H48.7" stroke="white" stroke-width="2" stroke-miterlimit="10"/>
</svg>
